PathFileType	4	(X/Y/Z)	C:/Users/opensim2020/Desktop/walking_exp_matlab/subject02_walking06_straight_02.trc	
DataRate	CameraRate	NumFrames	NumMarkers	Units	OrigDataRate	OrigDataStartFrame	OrigNumFrames	
100.00	100.00	4	41	mm	100.00	1546	183	
Frame#	Time	LFHD			RFHD			LBHD			RBHD			C7			T10			CLAV			STRN			RBAK			LSHO			LUPA			LELB			LFRM			LWRA			LWRB			LFIN			RSHO			RUPA			RELB			RFRM			RWRA			RWRB			RFIN			LASI			RASI			LPSI			RPSI			LTHI			LKNE			LTIB			LANK			LHEE			LTOE			RTHI			RKNE			RTIB			RANK			RHEE			RTOE			*39			*40			
		X1	Y1	Z1	X2	Y2	Z2	X3	Y3	Z3	X4	Y4	Z4	X5	Y5	Z5	X6	Y6	Z6	X7	Y7	Z7	X8	Y8	Z8	X9	Y9	Z9	X10	Y10	Z10	X11	Y11	Z11	X12	Y12	Z12	X13	Y13	Z13	X14	Y14	Z14	X15	Y15	Z15	X16	Y16	Z16	X17	Y17	Z17	X18	Y18	Z18	X19	Y19	Z19	X20	Y20	Z20	X21	Y21	Z21	X22	Y22	Z22	X23	Y23	Z23	X24	Y24	Z24	X25	Y25	Z25	X26	Y26	Z26	X27	Y27	Z27	X28	Y28	Z28	X29	Y29	Z29	X30	Y30	Z30	X31	Y31	Z31	X32	Y32	Z32	X33	Y33	Z33	X34	Y34	Z34	X35	Y35	Z35	X36	Y36	Z36	X37	Y37	Z37	X38	Y38	Z38	X39	Y39	Z39	X40	Y40	Z40	X41	Y41	Z41	

115	1.140	-1002.28992	-402.76163	1753.66455	-1144.83789	-403.61206	1733.10413	-993.30023	-276.33337	1673.21936	-1134.71692	-264.37207	1650.64270	-1066.96570	-228.08675	1532.22131	-1090.05957	-178.90916	1256.96448	-1051.85107	-368.09793	1465.25330	-1065.89758	-421.02203	1293.72974	-1143.75171	-175.18163	1361.68579	-884.20404	-292.89066	1500.57446	-808.13855	-266.99600	1299.08081	-801.51312	-252.41167	1158.79907	-790.63318	-251.26154	1027.41907	-826.44916	-292.47586	895.47211	-789.36188	-249.96884	903.88129	-790.03320	-259.28467	836.89624	-1250.04700	-314.88388	1507.87842	-1351.78320	-296.56589	1326.31958	-1386.32190	-321.63174	1183.30151	-1407.81848	-369.56116	1072.78503	-1389.74792	-434.89053	954.90912	-1427.03162	-393.49072	946.02350	-1429.66003	-442.15854	892.57001	-950.21582	-401.49509	996.27020	-1203.88623	-412.94391	982.78607	-1039.96558	-196.43912	1040.84192	-1156.01343	-198.81050	1042.81287	-879.44501	-391.05618	691.30890	-901.48560	-408.92545	500.73517	-923.24200	-294.81815	352.63950	-963.56342	-220.92567	145.07002	-1025.16589	-194.72015	126.66872	-913.84918	-338.25925	58.23232	-1258.63184	-336.46823	672.12592	-1207.91248	-328.58804	463.39264	-1208.88721	-282.36096	280.00626	-1162.27783	-255.76080	90.28835	-1105.35449	-217.81534	38.54992	-1175.43738	-406.59995	35.96357	-1092.69116	-297.76788	1812.88574			 
116	1.150	-1001.73724	-412.62851	1753.16345	-1144.03320	-413.58023	1733.26672	-993.42169	-285.91968	1672.92468	-1134.56653	-274.16025	1651.20020	-1067.73254	-237.74036	1532.52563	-1090.62048	-188.15645	1257.16284	-1052.08276	-377.12497	1465.07849	-1066.68726	-430.07645	1293.63599	-1145.15356	-184.87814	1362.34912	-884.60742	-301.28442	1499.94812	-808.62732	-271.41382	1299.17090	-802.11298	-255.36288	1158.98828	-791.17944	-251.67265	1027.39160	-827.00549	-291.37192	895.07495	-789.92065	-249.04823	903.96918	-790.36066	-257.65298	837.20776	-1250.00732	-324.92993	1508.73352	-1352.79138	-308.99222	1327.49561	-1388.26343	-336.03391	1184.94434	-1409.36145	-386.12744	1075.26941	-1390.86572	-453.40970	958.74219	-1428.38489	-412.46896	948.97070	-1430.70435	-462.29425	896.62915	-952.50366	-411.85529	996.75549	-1205.61023	-420.79871	982.02380	-1039.12976	-205.95316	1041.56152	-1155.32178	-207.08759	1042.95325	-879.66772	-403.58383	692.83398	-902.73175	-423.48083	501.21277	-923.87695	-316.43365	346.89032	-963.60358	-252.97969	135.75742	-1025.33215	-227.86676	115.64240	-914.02740	-375.01135	55.62780	-1258.59521	-341.98721	671.70044	-1207.92322	-331.24652	463.11691	-1208.70276	-283.24219	280.19211	-1162.02051	-256.06012	90.79511	-1105.05798	-218.06137	38.83096	-1175.65857	-406.52255	35.92978	-1092.21509	-307.91321	1813.43689			 
117	1.160	-1000.78534	-422.32199	1752.64575	-1142.93103	-423.42456	1733.20850	-992.88983	-295.17612	1673.19165	-1134.36108	-283.84241	1651.46716	-1067.90491	-246.99896	1532.37048	-1091.06299	-197.36612	1257.27014	-1052.12793	-386.49677	1464.95190	-1067.50208	-439.59482	1293.62756	-1146.34338	-194.48468	1362.64050	-884.91736	-309.74063	1499.20569	-809.21161	-276.44742	1299.17090	-802.57336	-258.54163	1159.09521	-791.71283	-252.61191	1027.49036	-827.15906	-290.97174	894.91827	-790.68262	-248.37819	904.12463	-790.79553	-256.49139	837.34845	-1250.10339	-335.14569	1509.46960	-1354.18408	-321.23734	1328.57092	-1390.36975	-350.37119	1186.65088	-1410.73816	-402.62344	1077.62305	-1391.80298	-471.78336	962.44983	-1429.55054	-431.26730	951.84796	-1431.58765	-482.29578	900.59058	-954.38165	-422.32330	996.90161	-1207.39014	-428.61292	981.03320	-1038.27405	-215.42749	1042.06628	-1154.50378	-215.35487	1042.92566	-879.79785	-415.42966	694.01801	-903.95746	-437.50867	501.54065	-924.54828	-337.73624	341.19342	-963.22919	-285.90634	126.47766	-1025.02942	-261.55185	104.96830	-913.81384	-411.93561	53.33563	-1258.62500	-347.24356	671.41956	-1207.82129	-334.03986	462.75458	-1208.52393	-284.35995	280.32336	-1161.71826	-256.21838	91.05226	-1105.22412	-218.07118	39.23884	-1175.77625	-406.57397	35.99789	-1091.14380	-317.90543	1813.33533			 
118	1.170	-1000.01166	-432.10040	1752.29028	-1141.97400	-433.37424	1733.06152	-992.75873	-305.16141	1672.59827	-1134.06750	-293.51617	1651.62146	-1068.21570	-256.51859	1532.19507	-1091.25073	-206.50945	1257.17004	-1052.21448	-395.91422	1464.72217	-1068.31848	-448.86710	1293.39990	-1147.07068	-204.23480	1362.63708	-885.19269	-318.24164	1498.29236	-809.78668	-281.48361	1298.93481	-803.02808	-261.58600	1159.19324	-792.09424	-254.40862	1027.75098	-827.14716	-291.49655	895.22357	-791.24817	-247.62756	904.26520	-791.10413	-255.56538	837.60370	-1250.17786	-345.29645	1510.03455	-1355.13550	-333.56558	1329.43567	-1391.61121	-364.81317	1187.80139	-1411.88000	-418.83212	1079.88477	-1392.58350	-490.02835	966.00818	-1430.53064	-449.98236	954.61877	-1432.34778	-501.97791	904.44366	-955.83649	-432.68384	996.72107	-1208.90063	-436.54440	980.04871	-1037.30029	-224.88972	1042.30713	-1153.58936	-223.61212	1042.72998	-880.09784	-427.32138	694.98236	-905.44800	-450.73868	501.41046	-925.19275	-358.94235	335.41327	-962.43427	-318.97433	117.64845	-1023.92749	-295.79858	94.50049	-913.15253	-448.92795	51.67189	-1257.99268	-351.98260	671.04889	-1207.79529	-337.04825	462.43848	-1208.30115	-285.79080	280.45001	-1161.38538	-256.36267	91.01279	-1104.54187	-218.09132	39.45106	-1175.81958	-406.88214	36.16997	-1090.14124	-327.88776	1813.18372			 
